# AST/ASF file generated using VICON BodyLanguage
# -----------------------------------------------
:version 1.10
:name VICON
:units
  mass 1.0
  length 0.45
  angle deg
:documentation
   .ast/.asf automatically generated from VICON data using
   VICON BodyBuilder and BodyLanguage model FoxedUp or BRILLIANT.MOD
:root
   order TX TY TZ RX RY RZ
   axis XYZ
   position 0 0 0  
   orientation 0 0 0 
:bonedata
  begin
     id 1 
     name lhipjoint
     direction 0.700308 -0.549349 0.455834 
     length 2.59063 
     axis 0 0 0  XYZ
  end
  begin
     id 2 
     name lfemur
     direction 0.34202 -0.939693 0  
     length 6.31066  
     axis 0 0 20  XYZ
    dof rx ry rz
    limits (-160.0 20.0)
           (-70.0 70.0)
           (-60.0 70.0)
  end
  begin
     id 3 
     name ltibia
     direction 0.34202 -0.939693 0   
     length 7.36093   
     axis 0 0 20   XYZ
    dof rx
    limits (-10.0 170.0)
  end
  begin
     id 4 
     name lfoot
     direction 0.0905332 -0.248738 0.96433   
     length 2.0233   
     axis -90 7.62852e-016 20   XYZ
    dof rx rz
    limits (-45.0 90.0)
           (-70.0 20.0)
  end
  begin
     id 5 
     name ltoes
     direction 1.53573e-011 -4.21855e-011 1   
     length 1.01524   
     axis -90 7.62852e-016 20   XYZ
    dof rx
    limits (-90.0 20.0)
  end
  begin
     id 6 
     name rhipjoint
     direction -0.61416 -0.607328 0.503944   
     length 2.34332  
     axis 0 0 0  XYZ 
  end
  begin
     id 7 
     name rfemur
     direction -0.34202 -0.939693 0   
     length 6.58548   
     axis 0 0 -20   XYZ
    dof rx ry rz
    limits (-160.0 20.0)
           (-70.0 70.0)
           (-70.0 60.0)
  end
  begin
     id 8 
     name rtibia
     direction -0.34202 -0.939693 0   
     length 7.20707   
     axis 0 0 -20   XYZ
    dof rx
    limits (-10.0 170.0)
 end
 begin
     id 9 
     name rfoot
     direction -0.136772 -0.375778 0.916561   
     length 1.92184  
     axis -90 -7.62852e-016 -20   XYZ
    dof rx rz
    limits (-45.0 90.0)
           (-20.0 70.0)
  end
  begin
     id 10 
     name rtoes
     direction -1.53535e-011 -4.21828e-011 1   
     length 0.951089   
     axis -90 -7.62852e-016 -20   XYZ
    dof rx
    limits (-90.0 20.0)
  end
  begin
     id 11 
     name lowerback
     direction -0.0444974 0.988086 -0.147332   
     length 1.9609   
     axis 0 0 0   XYZ
    dof rx ry rz
    limits (-20.0 45.0)
           (-30.0 30.0)
           (-30.0 30.0)
  end
  begin
     id 12 
     name upperback
     direction 0.00613146 0.999513 0.0306081   
     length 1.94944   
     axis 0 0 0   XYZ
    dof rx ry rz
    limits (-20.0 45.0)
           (-30.0 30.0)
           (-30.0 30.0)
  end
  begin
     id 13 
     name thorax
     direction 0.0254621 0.994518 0.101418   
     length 2.0119   
     axis 0 0 0   XYZ
    dof rx ry rz
    limits (-20.0 45.0)
           (-30.0 30.0)
           (-30.0 30.0)
  end
  begin
     id 14 
     name lowerneck
     direction 0.0168698 0.977854 0.208608   
     length 1.6375   
     axis 0 0 0   XYZ
    dof rx ry rz
    limits (-20.0 45.0)
           (-30.0 30.0)
           (-30.0 30.0)
  end
  begin
     id 15 
     name upperneck
     direction -0.0283988 0.989338 -0.142843   
     length 1.6851   
     axis 0 0 0   XYZ
    dof rx ry rz
    limits (-20.0 45.0)
           (-30.0 30.0)
           (-30.0 30.0)
  end
  begin
     id 16
     name head
     direction -0.0129422 0.99741 -0.0707489  
     length 1.69029  
     axis 0 0 0   XYZ
    dof rx ry rz
    limits (-20.0 45.0)
           (-30.0 30.0)
           (-30.0 30.0)
  end
  begin
     id 17 
     name lclavicle
     direction 0.820295 0.564628 -0.0911715  
     length 3.16484  
     axis 0 0 0   XYZ
    dof ry rz
    limits (-20.0 10.0)
           (0.0 20.0)
  end
  begin
     id 18 
     name lhumerus
     direction 1 -4.48969e-011 1.00186e-027   
     length 5.17853   
     axis 180 -30 -90   XYZ
    dof rx ry rz
    limits (-60.0 90.0)
           (-90.0 90.0)
           (-90.0 90.0)
  end
  begin
     id 19
     name lradius
     direction 1 -4.48966e-011 -1.52922e-027   
     length 3.40399   
     axis 180 -30 -90   XYZ
    dof rx
    limits (-10.0 170.0)
  end
  begin
     id 20
     name lwrist
     direction 1 -4.48981e-011 -3.80893e-027   
     length 1.70199   
     axis 1.1049e-015 90 90   XYZ
    dof ry
    limits (-180.0 0.0)
 end
  begin
     id 21 
     name lhand
     direction 1 -4.48957e-011 -7.61786e-027   
     length 0.708964   
     axis 4.86085e-015 90 90   XYZ
    dof rx rz
    limits (-90.0 90.0)
           (-45.0 45.0)
  end
  begin
     id 22 
     name lfingers
     direction 1 -4.48929e-011 -1.52357e-026   
     length 0.571585   
     axis 9.7217e-015 90 90   XYZ
    dof rx
    limits (0.0 90.0)
  end
  begin
     id 23
     name lthumb
     direction 0.707107 -6.34905e-011 0.707107   
     length 0.820685   
     axis -90 45 2.85299e-015   XYZ
    dof rx rz
    limits (-45.0 45.0)
           (-45.0 45.0)
  end
  begin
     id 24 
     name rclavicle
     direction -0.858602 0.463947 -0.218075   
     length 3.35137  
     axis 0 0 0   XYZ 
    dof ry rz
    limits (-10.0 20.0)
           (-20.0 0.0)
  end
  begin
     id 25 
     name rhumerus
     direction -1 -4.48969e-011 -1.98511e-027  
     length 5.42351   
     axis 180 30 90   XYZ
    dof rx ry rz
    limits (-90.0 60.0)
           (-90.0 90.0)
           (-90.0 90.0)
  end
  begin
     id 26 
     name rradius
     direction -1 -4.48961e-011 -2.82624e-027   
     length 3.42066   
     axis 180 30 90   XYZ
    dof rx
    limits (-10.0 170.0)
  end
  begin
     id 27 
     name rwrist
     direction -1 -4.48966e-011 -3.80893e-027   
     length 1.71033   
     axis 1.1049e-015 -90 -90   XYZ
    dof ry
    limits (-180.0 0.0)
  end
  begin
     id 28
     name rhand
     direction -1 -4.48964e-011 -7.61786e-027   
     length 0.743608   
     axis 4.86085e-015 -90 -90   XYZ
    dof rx rz
    limits (-90.0 90.0)
           (-45.0 45.0)
  end
  begin
     id 29
     name rfingers
     direction -1 -4.48961e-011 -1.52357e-026   
     length 0.599516   
     axis 9.7217e-015 -90 -90   XYZ
    dof rx
    limits (0.0 90.0)
  end
  begin
     id 30
     name rthumb
     direction -0.707107 -6.34913e-011 0.707107   
     length 0.860789   
     axis -90 -45 -2.85299e-015   XYZ
    dof rx rz
    limits (-45.0 45.0)
           (-45.0 45.0)
  end
:hierarchy
  begin
    root lhipjoint rhipjoint lowerback
    lhipjoint lfemur
    lfemur ltibia
    ltibia lfoot
    lfoot ltoes
    rhipjoint rfemur
    rfemur rtibia
    rtibia rfoot
    rfoot rtoes
    lowerback upperback
    upperback thorax
    thorax lowerneck lclavicle rclavicle
    lowerneck upperneck
    upperneck head
    lclavicle lhumerus
    lhumerus lradius
    lradius lwrist
    lwrist lhand lthumb
    lhand lfingers
    rclavicle rhumerus
    rhumerus rradius
    rradius rwrist
    rwrist rhand rthumb
    rhand rfingers
  end

#!OML:ASF E:\mmandel\Project 1\Capture day 1\Session 2\Subject.ASF
:FULLY-SPECIFIED
:DEGREES
478
root 2.12988 6.03746 -0.597067 27.0475 64.2326 65.4375
lowerback 38.7515 -0.231089 -9.59558
upperback 15.6069 -1.85469 -1.18295
thorax -1.13626 -0.498667 4.2658
lowerneck -8.28918 0.0975129 6.28912
upperneck 40.6099 6.30893 -14.0231
head 16.7655 2.62703 -6.31444
rclavicle 3.49861e-014 -4.77083e-014
rhumerus -82.9618 -57.9539 6.81548
rradius 4.78557
rwrist 64.0521
rhand -25.074 43.5694
rfingers 7.12502
rthumb 1.44009 13.5946
lclavicle 3.49861e-014 -4.77083e-014
lhumerus 4.96725 -36.6439 35.4066
lradius 25.6273
lwrist 32.8235
lhand -22.877 -18.8229
lfingers 7.12502
lthumb 3.56191 11.1271
rfemur -92.6569 -25.8479 18.2961
rtibia 138.77
rfoot -23.2667 0.313283
rtoes 7.42977
lfemur -55.9957 59.8626 3.47333
ltibia 123.631
lfoot -15.9538 -13.7152
ltoes 11.5179
479
root 2.23031 6.07584 -0.627107 26.8683 63.8829 65.0484
lowerback 38.7036 -0.351517 -9.41914
upperback 15.4564 -1.96415 -0.893369
thorax -1.28438 -0.565366 4.52158
lowerneck -8.32913 0.0975773 6.17578
upperneck 40.8107 6.62975 -14.5772
head 16.9861 2.70636 -6.53312
rclavicle -1.43125e-014 -3.18055e-014
rhumerus -85.9534 -57.7648 11.5765
rradius 4.87294
rwrist 66.6685
rhand -24.9589 44.0687
rfingers 7.12502
rthumb 1.55125 14.0946
lclavicle -1.43125e-014 -3.18055e-014
lhumerus 4.96425 -35.9257 35.4664
lradius 25.3631
lwrist 31.4336
lhand -23.049 -19.0426
lfingers 7.12502
lthumb 3.39577 10.9101
rfemur -92.4859 -25.5653 17.752
rtibia 139.051
rfoot -23.6104 -0.101783
rtoes 7.13958
lfemur -54.6999 60.3688 4.45169
ltibia 124.011
lfoot -16.2342 -13.9765
ltoes 12.8412
480
root 2.33796 6.10419 -0.660159 27.0966 63.722 64.7456
lowerback 37.9941 -0.687448 -8.9484
upperback 15.4552 -2.17578 -0.71303
thorax -1.06953 -0.684691 4.54464
lowerneck -8.28963 0.0746132 5.94647
upperneck 40.8364 6.77445 -14.8355
head 17.0309 2.71528 -6.59348
rclavicle -3.97569e-015 -2.22639e-014
rhumerus -89.1296 -57.7166 16.3965
rradius 4.88311
rwrist 69.2533
rhand -24.8941 44.3941
rfingers 7.12502
rthumb 1.61389 14.4205
lclavicle -3.97569e-015 -2.22639e-014
lhumerus 5.16005 -34.9462 35.4361
lradius 25.0546
lwrist 29.863
lhand -23.2143 -19.1708
lfingers 7.12502
lthumb 3.23614 10.7844
rfemur -92.8322 -25.9841 17.3347
rtibia 139.592
rfoot -23.8927 0.49502
rtoes 8.16126
lfemur -54.3847 60.9071 4.81694
ltibia 124.542
lfoot -16.6229 -14.2177
ltoes 12.0068
481
root 2.43795 6.13709 -0.692039 27.0611 63.416 64.7183
lowerback 37.6571 -1.0141 -8.59309
upperback 15.6972 -2.40642 -0.754704
thorax -0.694453 -0.794643 4.38988
lowerneck -8.23994 0.131912 5.81768
upperneck 40.6607 6.92191 -15.0048
head 16.9542 2.73717 -6.60941
rclavicle 2.54444e-014 -2.54444e-014
rhumerus -92.4816 -58.0504 21.1284
rradius 4.87193
rwrist 71.7802
rhand -24.5917 44.4535
rfingers 7.12502
rthumb 1.90595 14.4823
lclavicle 2.54444e-014 -2.54444e-014
lhumerus 5.58973 -34.2442 34.8224
lradius 24.9797
lwrist 29.3042
lhand -23.1033 -19.3467
lfingers 7.12502
lthumb 3.34336 10.6069
rfemur -92.4479 -26.2855 16.383
rtibia 140.013
rfoot -24.0712 1.09751
rtoes 9.22016
lfemur -52.6815 61.2054 5.8989
ltibia 124.808
lfoot -17.084 -14.4196
ltoes 10.3735
482
root 2.54043 6.17169 -0.721118 27.2231 63.0136 64.8509
lowerback 37.9014 -0.96006 -8.75411
upperback 15.4858 -2.431 -0.396913
thorax -0.982468 -0.828022 4.8624
lowerneck -8.28616 0.0802164 5.67187
upperneck 40.938 7.12291 -15.3944
head 17.194 2.78241 -6.77187
rclavicle 7.23576e-014 3.18055e-015
rhumerus -95.4042 -57.5808 26.075
rradius 4.82777
rwrist 74.2958
rhand -24.2959 44.7041
rfingers 7.12502
rthumb 2.1916 14.7356
lclavicle 7.23576e-014 3.18055e-015
lhumerus 5.59567 -34.0033 34.9094
lradius 24.9954
lwrist 29.1129
lhand -22.8112 -19.4717
lfingers 7.12502
lthumb 3.62538 10.4772
rfemur -92.228 -26.479 15.3368
rtibia 140.409
rfoot -24.1933 1.66508
rtoes 9.92387
lfemur -50.8544 61.5425 6.91816
ltibia 125.003
lfoot -17.3114 -14.9423
ltoes 11.4235
483
root 2.64144 6.20737 -0.750756 26.9183 62.7941 64.4817
lowerback 37.9024 -1.22551 -8.36693
upperback 15.5183 -2.62245 -0.279058
thorax -0.949817 -0.912286 4.85069
lowerneck -8.3556 0.079655 5.56488
upperneck 40.9517 7.25345 -15.649
head 17.265 2.79717 -6.86053
rclavicle 2.38542e-014 -9.54166e-015
rhumerus -98.4129 -57.2975 30.7301
rradius 4.7564
rwrist 76.8381
rhand -24.0962 45.0009
rfingers 7.12502
rthumb 2.38443 15.0345
lclavicle 2.38542e-014 -9.54166e-015
lhumerus 5.71779 -33.9942 34.4253
lradius 25.2052
lwrist 29.3113
lhand -22.6418 -19.4473
lfingers 7.12502
lthumb 3.789 10.4987
rfemur -91.8574 -26.6282 14.6326
rtibia 140.747
rfoot -24.5138 2.08383
rtoes 9.96535
lfemur -49.055 61.9036 8.39927
ltibia 125.269
lfoot -17.3127 -15.7424
ltoes 14.1804
484
root 2.74773 6.23865 -0.785789 26.7257 62.6504 64.0601
lowerback 37.6651 -1.61537 -7.81306
upperback 15.5666 -2.90256 -0.218246
thorax -0.828235 -1.03598 4.71855
lowerneck -8.27237 0.111707 5.54456
upperneck 40.7655 7.40723 -16.0001
head 17.193 2.82467 -6.9858
rclavicle 1.59028e-015 3.49861e-014
rhumerus -101.328 -56.9387 35.211
rradius 4.65653
rwrist 79.4383
rhand -23.8981 45.3373
rfingers 7.12502
rthumb 2.57573 15.3732
lclavicle 1.59028e-015 3.49861e-014
lhumerus 5.75675 -33.9637 33.9835
lradius 25.3661
lwrist 29.2869
lhand -22.5452 -19.794
lfingers 7.12502
lthumb 3.88228 10.1503
rfemur -91.8701 -27.036 14.1211
rtibia 141.196
rfoot -24.7556 2.2815
rtoes 9.41018
lfemur -47.7768 62.3113 9.63607
ltibia 125.669
lfoot -17.3587 -16.4841
ltoes 15.1806
485
root 2.85091 6.27253 -0.820478 26.5907 62.222 63.8559
lowerback 37.5253 -1.72603 -7.74931
upperback 15.6634 -3.00308 -0.0678036
thorax -0.811468 -1.09901 4.90233
lowerneck -8.22572 0.180609 5.58365
upperneck 40.6303 7.65738 -16.4414
head 17.1928 2.89851 -7.16036
rclavicle 1.27222e-014 -9.54166e-015
rhumerus -104.013 -56.4255 39.7045
rradius 4.46623
rwrist 82.1646
rhand -23.6855 45.6899
rfingers 7.12502
rthumb 2.78108 15.7283
lclavicle 1.27222e-014 -9.54166e-015
lhumerus 5.72658 -33.8362 33.8704
lradius 25.4591
lwrist 29.0908
lhand -22.591 -20.3407
lfingers 7.12502
lthumb 3.83804 9.6045
rfemur -91.7254 -27.1629 13.2152
rtibia 141.59
rfoot -24.7631 2.64103
rtoes 9.7814
lfemur -45.7836 62.7377 11.1371
ltibia 125.964
lfoot -17.7424 -16.8375
ltoes 13.4819
486
root 2.95666 6.30779 -0.854717 26.4338 61.9009 63.6983
lowerback 37.7785 -1.75148 -7.79368
upperback 15.4805 -3.0699 0.261055
thorax -0.923932 -1.14752 5.27254
lowerneck -8.17904 0.152329 5.37165
upperneck 40.6557 7.7448 -16.6144
head 17.2231 2.89577 -7.19263
rclavicle 3.81667e-014 -2.22639e-014
rhumerus -106.638 -56.0009 44.2973
rradius 4.32395
rwrist 84.8293
rhand -23.4153 45.6513
rfingers 7.12502
rthumb 3.04208 15.6933
lclavicle 3.81667e-014 -2.22639e-014
lhumerus 5.58026 -33.5777 34.1078
lradius 25.5124
lwrist 28.6815
lhand -22.6865 -20.7425
lfingers 7.12502
lthumb 3.74585 9.20431
rfemur -91.2641 -27.6255 12.2081
rtibia 141.905
rfoot -24.8898 3.37378
rtoes 10.3236
lfemur -43.5658 63.0675 12.873
ltibia 126.285
lfoot -18.2717 -16.9768
ltoes 11.6428
487
root 3.05976 6.34265 -0.892791 26.2566 61.7002 63.7297
lowerback 38.1702 -1.97568 -7.62607
upperback 15.4803 -3.29665 0.388697
thorax -1.02914 -1.2463 5.39869
lowerneck -8.17491 0.142599 5.21341
upperneck 40.6244 7.81104 -16.7568
head 17.226 2.88704 -7.21862
rclavicle 2.06736e-014 6.36111e-015
rhumerus -109.539 -55.8279 48.8616
rradius 4.32609
rwrist 87.3404
rhand -23.0271 45.2778
rfingers 7.12502
rthumb 3.41697 15.3255
lclavicle 2.06736e-014 6.36111e-015
lhumerus 5.43475 -33.3227 34.112
lradius 25.661
lwrist 28.3883
lhand -22.6379 -20.9021
lfingers 7.12502
lthumb 3.7928 9.04391
rfemur -90.5169 -28.3206 10.9854
rtibia 142.174
rfoot -25.1642 4.18271
rtoes 10.1518
lfemur -41.2351 63.0422 14.59
ltibia 126.557
lfoot -18.8707 -17.2166
ltoes 10.8773
488
root 3.17901 6.36946 -0.930016 26.6973 61.6113 63.4398
lowerback 37.0154 -2.47621 -7.05376
upperback 15.6445 -3.67732 0.381336
thorax -0.627882 -1.44429 5.22216
lowerneck -8.2149 0.224258 5.26163
upperneck 40.5133 8.02859 -17.0963
head 17.2518 2.95103 -7.35596
rclavicle 3.97569e-014 -3.18055e-014
rhumerus -112.22 -55.4137 53.0468
rradius 4.24811
rwrist 89.8286
rhand -22.5327 45.4272
rfingers 7.12502
rthumb 3.89441 15.483
lclavicle 3.97569e-014 -3.18055e-014
lhumerus 5.33133 -33.3177 33.8385
lradius 25.8598
lwrist 28.5927
lhand -22.4922 -21.1086
lfingers 7.12502
lthumb 3.93351 8.83487
rfemur -91.339 -29.3368 10.5906
rtibia 142.703
rfoot -25.3016 4.90822
rtoes 9.37389
lfemur -40.5912 63.7764 15.4754
ltibia 127.136
lfoot -19.6007 -17.8234
ltoes 9.9044
489
root 3.28953 6.40431 -0.960643 25.9079 61.1962 62.7023
lowerback 37.1723 -2.57081 -6.84857
upperback 15.6336 -3.73587 0.512622
thorax -0.694692 -1.46839 5.27608
lowerneck -8.28079 0.229056 5.20372
upperneck 40.5724 8.1837 -17.3897
head 17.3661 2.98447 -7.47993
rclavicle -3.97569e-014 -4.45278e-014
rhumerus -114.665 -54.7279 57.1401
rradius 4.20231
rwrist 92.1265
rhand -21.8165 45.6345
rfingers 7.12502
rthumb 4.58601 15.7042
lclavicle -3.97569e-014 -4.45278e-014
lhumerus 5.16621 -33.4858 33.8043
lradius 25.9848
lwrist 28.7502
lhand -22.4551 -21.6243
lfingers 7.12502
lthumb 3.96932 8.31846
rfemur -90.8845 -29.2913 9.84731
rtibia 143.037
rfoot -25.4925 5.11662
rtoes 8.31868
lfemur -37.0522 64.3795 18.855
ltibia 127.453
lfoot -20.2036 -18.6001
ltoes 9.6262
490
root 3.40904 6.42295 -0.995066 25.727 60.8652 62.4279
lowerback 37.0613 -2.70742 -6.77219
upperback 15.6343 -3.87559 0.665566
thorax -0.640254 -1.5492 5.43929
lowerneck -8.25335 0.232081 4.94471
upperneck 40.5054 8.28494 -17.5203
head 17.3464 2.97664 -7.46928
rclavicle 5.08889e-014 -2.8625e-014
rhumerus -117.339 -54.3026 61.4402
rradius 4.37769
rwrist 94.2647
rhand -20.9552 45.2995
rfingers 7.12502
rthumb 5.41761 15.3888
lclavicle 5.08889e-014 -2.8625e-014
lhumerus 4.86999 -33.5538 33.9224
lradius 26.1341
lwrist 28.7484
lhand -22.3827 -22.1301
lfingers 7.12502
lthumb 4.03918 7.8114
rfemur -90.9163 -30.0489 9.14476
rtibia 143.567
rfoot -25.6658 5.50986
rtoes 7.05645
lfemur -34.3653 64.9002 21.4575
ltibia 127.954
lfoot -20.6793 -19.2081
ltoes 8.5067
491
root 3.5238 6.4446 -1.03074 26.3798 60.6173 62.7733
lowerback 36.9484 -2.93402 -7.99097
upperback 15.3284 -4.56351 1.46732
thorax -0.688781 -2.01799 7.13705
lowerneck -7.72642 0.633438 3.38092
upperneck 39.9788 9.41847 -18.0438
head 17.1486 3.19861 -7.16889
rclavicle 7.15625e-014 1.27222e-014
rhumerus -117.882 -55.6246 64.7542
rradius 4.31617
rwrist 96.5905
rhand -20.4055 44.8719
rfingers 7.12502
rthumb 5.94829 14.9754
lclavicle 7.15625e-014 1.27222e-014
lhumerus 2.32239 -31.6316 36.3932
lradius 25.6741
lwrist 27.4127
lhand -22.3799 -22.5822
lfingers 7.12502
lthumb 4.0419 7.35919
rfemur -91.4222 -31.5487 8.11084
rtibia 144.19
rfoot -25.7637 6.81325
rtoes 7.35752
lfemur -33.1298 65.1911 22.3577
ltibia 128.437
lfoot -21.1847 -19.4641
ltoes 5.94954
